<?xml version="1.0" encoding="UTF-8" standalone="no"?>
<!-- Created with Inkscape (http://www.inkscape.org/) -->
<svg height="128" width="128" xmlns="http://www.w3.org/2000/svg" xmlns:xlink="http://www.w3.org/1999/xlink">
  <defs>
    <linearGradient id="linearGradient3328">
      <stop offset="0"/>
      <stop offset="1" stop-opacity="0"/>
    </linearGradient>
    <linearGradient id="linearGradient3320">
      <stop offset="0" stop-color="#fff"/>
      <stop offset="1" stop-color="#fff" stop-opacity="0"/>
    </linearGradient>
    <linearGradient id="linearGradient8864">
      <stop offset="0" stop-color="#393a38"/>
      <stop offset="1" stop-color="#393a38" stop-opacity="0"/>
    </linearGradient>
    <linearGradient id="linearGradient2221">
      <stop offset="0"/>
      <stop offset=".40659341" stop-opacity=".682353"/>
      <stop offset=".45329672" stop-opacity=".487365"/>
      <stop offset=".5" stop-opacity=".361011"/>
      <stop offset=".70604396" stop-opacity=".151625"/>
      <stop offset="1" stop-opacity="0"/>
    </linearGradient>
    <linearGradient id="linearGradient7829" gradientUnits="userSpaceOnUse" x1="-82.509743" x2="-118.91476" xlink:href="#linearGradient2221" y1="64.065186" y2="63.447075"/>
    <linearGradient id="linearGradient7831" gradientUnits="userSpaceOnUse" x1="-146.75171" x2="-123.66653" xlink:href="#linearGradient2221" y1="74.959991" y2="73.415115"/>
    <linearGradient id="linearGradient7833" gradientUnits="userSpaceOnUse" x1="-113.6435" x2="-118.30019" xlink:href="#linearGradient3328" y1="78.293831" y2="33.764427"/>
    <radialGradient id="radialGradient8823" cx="63.84724" cy="121.47017" fx="95.480644" gradientTransform="matrix(1 0 0 .102273 0 109.0471)" gradientUnits="userSpaceOnUse" r="63.84724" xlink:href="#linearGradient3328"/>
    <radialGradient id="radialGradient8832" cx="-16.60284" cy="73.863823" gradientTransform="matrix(.962775 .103895 .105414 6.978879 33.03078 -433.3987)" gradientUnits="userSpaceOnUse" r="4.390625" xlink:href="#linearGradient3320"/>
    <linearGradient id="linearGradient8845" gradientTransform="matrix(.961459 -.04366598 -.005518 1.121052 8.015668 -2.987019)" gradientUnits="userSpaceOnUse" spreadMethod="reflect" x1="106.2739" x2="79.54409" y1="52.468563" y2="69.991898">
      <stop offset="0" stop-color="#9a7600"/>
      <stop offset=".09292036" stop-color="#e3ad00"/>
      <stop offset=".5043171" stop-color="#ffcd2c"/>
      <stop offset=".91571385" stop-color="#e3ad00"/>
      <stop offset="1" stop-color="#b98d00"/>
    </linearGradient>
    <linearGradient id="linearGradient8853" gradientTransform="matrix(1.129522 .08477695 .05309184 1.206648 150.0367 -10.45332)" gradientUnits="userSpaceOnUse" x1="-116.78745" x2="-84.77729" xlink:href="#linearGradient3328" y1="116.55856" y2="93.56797"/>
    <radialGradient id="radialGradient8856" cx="70.623695" cy="53.380299" fx="70.964447" fy="76.702087" gradientTransform="matrix(1.126369 -.578005 .706687 1.338259 -56.17696 13.71076)" gradientUnits="userSpaceOnUse" r="53.565186">
      <stop offset="0" stop-color="#fff" stop-opacity="0"/>
      <stop offset=".5" stop-color="#7f7f7f" stop-opacity="0"/>
      <stop offset="1"/>
    </radialGradient>
    <linearGradient id="linearGradient8859" gradientTransform="matrix(1.129522 .08477695 .05309184 1.206648 150.0367 -10.45332)" gradientUnits="userSpaceOnUse" x1="-70.057068" x2="-27.8897" y1="95.781326" y2="66.671455">
      <stop offset="0" stop-color="#fff"/>
      <stop offset=".42597079" stop-color="#fff"/>
      <stop offset=".5892781" stop-color="#f1f1f1"/>
      <stop offset=".80219781" stop-color="#eaeaea"/>
      <stop offset="1" stop-color="#dfdfdf"/>
    </linearGradient>
    <linearGradient id="linearGradient8870" gradientTransform="matrix(.962775 .103895 .01547901 1.024792 1.181389 -2.598443)" gradientUnits="userSpaceOnUse" x1="95.84687" x2="76.361786" xlink:href="#linearGradient8864" y1="117.20569" y2="88.409065"/>
    <linearGradient id="linearGradient8872" gradientTransform="matrix(.962775 .103895 .01547901 1.024792 1.181389 -2.598443)" gradientUnits="userSpaceOnUse" x1="87.068436" x2="105.05599" xlink:href="#linearGradient8864" y1="146.89471" y2="58.65321"/>
    <radialGradient id="radialGradient2853" cx="104.66048" cy="65.847801" fx="115.7285" fy="56.281128" gradientTransform="matrix(.453553 -.261287 1.03209 1.791544 -20.21086 -24.28382)" gradientUnits="userSpaceOnUse" r="29.998838" xlink:href="#linearGradient3320"/>
    <linearGradient id="linearGradient2863" gradientUnits="userSpaceOnUse" x1="98.669891" x2="74.325119" y1="117.436963" y2="90.7593">
      <stop offset="0" stop-opacity=".447653"/>
      <stop offset=".5" stop-opacity=".133574"/>
      <stop offset="1" stop-opacity="0"/>
    </linearGradient>
    <linearGradient id="linearGradient3292" gradientUnits="userSpaceOnUse" x1="78.569206" x2="41.437614" xlink:href="#linearGradient3328" y1="22.051414" y2="59.81057"/>
    <linearGradient id="linearGradient3300" gradientUnits="userSpaceOnUse" x1="23.02284" x2="22.669342" xlink:href="#linearGradient3328" y1="104.74906" y2="135.73619"/>
    <linearGradient id="linearGradient3308" gradientUnits="userSpaceOnUse" x1="24.650917" x2="24.945656" xlink:href="#linearGradient3320" y1="111.04127" y2="122.54212"/>
    <radialGradient id="radialGradient3326" cx="29.962149" cy="131.46768" gradientTransform="matrix(.709744 -.0162743 .00367608 .160321 7.971984 102.5261)" gradientUnits="userSpaceOnUse" r="27.01967" xlink:href="#linearGradient3320"/>
    <radialGradient id="radialGradient3334" cx="27.565985" cy="130.94269" gradientTransform="matrix(1 0 0 .280337 0 85.27881)" gradientUnits="userSpaceOnUse" r="27.01967" xlink:href="#linearGradient3328"/>
  </defs>
  <g>
    <g transform="translate(253.643 -88.65193)">
      <circle cx="93.004997" cy="70.773003" fill="#9f0" opacity=".7" r="5.992" transform="matrix(-1.532253 .874618 -.874618 -1.532253 -35.5852 191.5738)"/>
      <path d="m-127.44273 167.76473c-1.53887 5.63208-7.35684 8.953-12.99045 7.41501-5.62726-1.53756-8.94819-7.35552-7.41086-12.98672 1.53887-5.63208 7.35684-8.95301 12.98717-7.4172 5.6323 1.5428 8.95081 7.36011 7.41414 12.98891z" fill="#f00" opacity=".7"/>
      <path d="m-229.65665 139.84174c-1.54062 5.62901-7.35617 8.95059-12.98585 7.41238-5.63361-1.53799-8.953-7.35683-7.41413-12.98891 1.53821-5.62967 7.35464-8.94972 12.98738-7.41326 5.63054 1.53974 8.95147 7.35771 7.4126 12.98979z" fill="#0c0" opacity=".7"/>
      <path d="m-134.82273 147.77816c-5.64706 1.48848-11.42861-1.88888-12.91317-7.53617-1.483-5.64816 1.89283-11.42884 7.54033-12.90944 5.64949-1.48783 11.4317 1.88713 12.91186 7.54098 1.48454 5.64728-1.89151 11.42402-7.53902 12.90463z" fill="#c09" opacity=".7"/>
      <path d="m-218.58915 120.88646c-4.14841 4.10689-10.8432 4.07661-14.95118-.07728-4.10929-4.14906-4.07638-10.83926.06809-14.94593 4.15191-4.11498 10.84626-4.07835 14.95555.07072 4.11083 4.14819 4.07727 10.84079-.07246 14.95249z" fill="#099" opacity=".7"/>
      <path d="m-143.6654 121.25016c-4.15234 4.1071-10.84232 4.07813-14.95337-.074-4.10754-4.146-4.07419-10.84254.07881-14.95205 4.14688-4.10601 10.83773-4.07551 14.94462.07289 4.11652 4.15104 4.08317 10.84759-.07006 14.95316z" fill="#609" opacity=".7"/>
      <circle cx="56.226002" cy="92.004997" fill="#03c" opacity=".7" r="5.993" transform="matrix(-1.532253 .874618 -.874618 -1.532253 -35.5852 191.5738)"/>
      <path d="m-164.58338 102.69759c-1.53975 5.63055-7.35859 8.94994-12.98892 7.41414-5.63054-1.53974-8.95147-7.35771-7.41413-12.988915 1.53974-5.630548 7.3577-8.951472 12.98891-7.414137 5.62901 1.540616 8.95147 7.35771 7.41414 12.988912z" fill="#309" opacity=".7"/>
      <g fill="none">
        <path d="m-134.856 154.77735c-5.63033-1.5358-11.4483 1.78512-12.98716 7.4172-1.53733 5.6312 1.78359 11.44917 7.41085 12.98672 5.63361 1.53799 11.45158-1.78293 12.99045-7.41501 1.5358-5.63033-1.78271-11.44764-7.41414-12.98891z" opacity=".7"/>
        <path d="m-140.19557 127.33255c-5.64816 1.48301-9.02333 7.26128-7.54033 12.90944 1.48609 5.64641 7.26611 9.02465 12.91317 7.53617 5.64663-1.48214 9.02356-7.25735 7.53902-12.90463-1.48016-5.65385-7.26237-9.02881-12.91186-7.54098z" opacity=".7"/>
        <circle cx="34.993" cy="70.773003" opacity=".7" r="5.992" transform="matrix(-1.532253 .874618 -.874618 -1.532253 -35.5852 191.5738)"/>
        <path d="m-184.98643 97.122815c-1.53734 5.631205 1.78359 11.449175 7.41413 12.988915 5.63033 1.5358 11.44917-1.78359 12.98892-7.41414 1.53886-5.632076-1.78513-11.448296-7.41414-12.988912-5.63121-1.537335-11.44917 1.783589-12.98891 7.414137z" opacity=".7"/>
        <circle cx="56.228001" cy="92.005997" opacity=".7" r="5.992" transform="matrix(-1.532253 .874618 -.874618 -1.532253 -35.5852 191.5738)"/>
      </g>
    </g>
    <path d="m15.373706 125.69402c6.847759.05531 12.622401-.70491 14.03227-.67012 9.326466.23004 31.671246-4.0974 22.735097-9.41724-9.762627-5.81187-36.595821-5.65575-47.0436958-.05179-11.4019674 6.11571 3.4296846 10.08382 10.2763288 10.13915z" fill="url(#radialGradient3326)" fill-rule="evenodd" opacity=".377049" stroke="url(#radialGradient3334)" stroke-width="2.152"/>
    <path d="m127.69448 121.47017a63.84724 6.5298314 0 1 1 -127.69448 0 63.84724 6.5298314 0 1 1 127.69448 0z" fill="url(#radialGradient8823)" opacity=".364754"/>
    <path d="m-300.30742-39.677947v-2.794709z" fill="#fff" fill-opacity=".756881"/>
    <g opacity=".401639" transform="matrix(-.782995 0 0 .650879 -2623.166 646.8397)"/>
    <g opacity=".401639" transform="matrix(-.782995 0 0 .650879 -2623.166 646.8397)"/>
    <g opacity=".401639" transform="matrix(1 0 0 .650879 577.797 654.1675)"/>
    <g opacity=".401639" transform="matrix(1 0 0 .650879 577.797 654.1675)"/>
    <path d="m86.083219 14.267693c4.898927 8.722133 30.524021 54.345678 35.422921 63.067812 4.89892 8.722136-5.8447 23.997165-23.986816 34.099205-18.142139 10.10203-36.837555 11.21945-41.736471 2.49732-4.898905-8.72212-30.524002-54.345677-35.422932-63.067809-4.898915-8.722128 5.844699-23.997164 23.986843-34.099197 18.142126-10.1020389 36.837559-11.2194722 41.736455-2.497331z" style="opacity:.25;fill:none;stroke:#000;stroke-width:2.977468;stroke-linecap:round;stroke-linejoin:round;stroke-dashoffset:4;stroke-opacity:.333333"/>
    <path d="m86.083219 14.267693c4.898927 8.722133 30.524021 54.345678 35.422921 63.067812 4.89892 8.722136-5.8447 23.997165-23.986816 34.099205-18.142139 10.10203-36.837555 11.21945-41.736471 2.49732-4.898905-8.72212-30.524002-54.345677-35.422932-63.067809-4.898915-8.722128 5.844699-23.997164 23.986843-34.099197 18.142126-10.1020389 36.837559-11.2194722 41.736455-2.497331z" style="opacity:.3;fill:none;stroke:#000;stroke-width:1.984979;stroke-linecap:round;stroke-linejoin:round;stroke-dashoffset:4;stroke-opacity:.333333"/>
    <path d="m86.078581 13.960252c4.898928 8.722134 30.524009 54.345684 35.422919 63.067817 4.89892 8.722131-5.84469 23.997161-23.98682 34.099201-18.142139 10.10203-36.837555 11.21945-41.736472 2.49732-4.898905-8.72212-30.524001-54.345675-35.42293-63.067806-4.898916-8.722129 5.844698-23.997165 23.986842-34.099198 18.142127-10.1020376 36.837547-11.2194645 41.736461-2.497334z" fill="url(#linearGradient8859)"/>
    <path d="m86.078581 13.960252c4.898928 8.722134 30.524009 54.345684 35.422919 63.067817 4.89892 8.722131-5.84469 23.997161-23.98682 34.099201-18.142139 10.10203-36.837555 11.21945-41.736472 2.49732-4.898905-8.72212-30.524001-54.345675-35.42293-63.067806-4.898916-8.722129 5.844698-23.997165 23.986842-34.099198 18.142127-10.1020376 36.837547-11.2194645 41.736461-2.497334z" fill="url(#radialGradient8856)" opacity=".405738"/>
    <path d="m86.078581 13.960252c4.898928 8.722134 30.524009 54.345684 35.422919 63.067817 4.89892 8.722131-5.84469 23.997161-23.98682 34.099201-18.142139 10.10203-36.837555 11.21945-41.736472 2.49732-4.898905-8.72212-30.524001-54.345675-35.42293-63.067806-4.898916-8.722129 5.844698-23.997165 23.986842-34.099198 18.142127-10.1020376 36.837547-11.2194645 41.736461-2.497334z" fill="url(#linearGradient8853)"/>
    <path d="m-84.361111 47.980999a33.496326 23.881639 0 1 1 -66.992649 0 33.496326 23.881639 0 1 1 66.992649 0z" fill="url(#linearGradient7831)" opacity=".4" transform="matrix(.981188 -.546351 .371618 .661637 152.2798 -63.94088)"/>
    <path d="m-84.361111 47.980999a33.496326 23.881639 0 1 1 -66.992649 0 33.496326 23.881639 0 1 1 66.992649 0z" fill="url(#linearGradient7829)" opacity=".4" transform="matrix(.981188 -.546351 .371618 .661637 151.317 -64.04474)"/>
    <path d="m-84.361111 47.980999a33.496326 23.881639 0 1 1 -66.992649 0 33.496326 23.881639 0 1 1 66.992649 0z" fill="url(#linearGradient7833)" opacity=".4" transform="matrix(.981188 -.546351 .371618 .661637 151.317 -64.04474)"/>
    <path d="m86.175314 14.144517c.299743.533686 1.382006 2.434636 1.601956 2.82623 4.898914 8.722134-5.828867 23.990761-23.970997 34.092802-18.142139 10.102033-36.821045 11.228286-41.719961 2.506154-.264778-.471413-1.529903-2.73768-1.909222-3.413039.125669 1.383126.490236 2.662763 1.154243 3.844955 2.538458 4.519546 8.667985 6.463942 16.377003 6.002257 7.709017-.461685 17.070162-3.322 26.260696-8.439532 9.190532-5.11754 16.52692-11.52179 20.957802-17.819929 4.430881-6.298142 5.940393-12.513392 3.401923-17.032942-.553381-.985262-1.280783-1.826272-2.153443-2.566956z" fill="#cacaca"/>
    <path d="m76.720644 9.4460895c-8.269062-.9134513-19.836405 1.8961275-31.175244 8.2098895-18.14215 10.102015-28.894349 25.392972-23.99544 34.115098.367568.654428.831588 1.232136 1.348485 1.776118-.268216-.346174-.521218-.686376-.737077-1.070689-4.898909-8.722127 5.85329-24.013082 23.99544-34.115098 16.773429-9.339884 34.016643-11.0010039 40.395704-4.305387-2.015735-2.593197-5.459685-4.1269484-9.831868-4.6099315z" fill="#babdb6" opacity=".4"/>
    <path d="m59.474254 68.01234 24.837099 41.90178c14.850934-6.67219 32.326487-22.259917 35.160577-32.60785l-24.191221-42.64011c-2.98601 15.175213-21.157401 26.339255-35.806455 33.34618z" fill="url(#linearGradient8845)"/>
    <path d="m-84.361111 47.980999a33.496326 23.881639 0 1 1 -66.992649 0 33.496326 23.881639 0 1 1 66.992649 0z" style="fill:none;stroke:#fff;stroke-width:1.612652;stroke-linecap:round;stroke-linejoin:round;stroke-dashoffset:4" transform="matrix(.979816 -.546512 .371116 .661595 151.1312 -64.06692)"/>
    <path d="m19.565592 44.078709c-.276816 2.324809.025177 4.484733 1.028864 6.328171 4.739522 8.704926 22.321124 6.558621 40.340556-2.668436 4.818399-2.467317 8.798995-5.444049 9.848034-6.319876-7.510285-4.714439-48.4413-8.942499-51.217454 2.660141z" fill="#b70000"/>
    <path d="m75.919406 8.2675994c-1.599153-.1736389-3.33057-.1885191-5.167658-.0780643-7.348343.4418201-16.352801 3.1774409-25.2588 8.1449439-8.906002 4.967502-15.972452 11.183399-20.195912 17.195987-.922371 1.313101-1.700606 2.629189-2.344053 3.903481.587288-1.1002 1.290564-2.19687 2.082464-3.32423 4.22346-6.012593 11.289427-12.26051 20.195426-17.228013 8.905999-4.967507 17.910459-7.7031241 25.258802-8.144944 7.348346-.4418201 13.009978 1.365955 15.342579 5.524324 1.603659 2.858882 1.452694 6.498342-.172783 10.436382 1.846077-4.153323 2.113914-7.990313.434858-10.983608-1.749456-3.118776-5.377464-4.925344-10.174923-5.4462586zm10.487786 18.2050996c-.622044 1.172428-1.365211 2.347824-2.19942 3.535414-4.449111 6.333821-11.785391 12.771451-20.996163 17.908949-9.210771 5.137493-18.564124 8.014227-26.305063 8.479655-7.740941.465426-13.902377-1.497567-16.462073-6.060775-1.759791-3.137205-1.573746-7.089576.159716-11.301049-1.960793 4.430134-2.262355 8.567068-.421789 11.848274 2.559695 4.563209 8.721133 6.526201 16.462073 6.060775 7.740941-.465423 17.094292-3.342162 26.305063-8.479655 9.210773-5.137498 16.547535-11.543102 20.996641-17.876921.964495-1.373071 1.781774-2.764133 2.461015-4.114667z" fill-opacity=".394309"/>
    <path d="m76.45258 8.034723c-1.599154-.1736368-3.331057-.2205404-5.168144-.1100845-7.348343.4418179-16.352801 3.1774385-25.2588 8.1449425-5.697171 3.177712-10.623554 6.880961-14.556737 10.706614 3.793152-3.546928 8.44903-6.936429 13.757939-9.897583 8.906001-4.967505 17.91046-7.7031236 25.258802-8.1449445 7.348343-.4418169 13.123136 1.3931475 15.314076 5.6262275 2.084049 4.02657.467034 9.783074-3.756424 15.795662-1.466522 2.08777-3.11249 4.024185-5.220012 6.10084 2.466379-2.333095 4.362944-4.552549 6.018809-6.909872 4.223466-6.012593 6.022406-11.507529 3.689792-15.665898-1.749455-3.118773-5.281842-5.1249895-10.079301-5.645904zm-46.668054 18.591682c-2.429967 2.335139-4.532247 4.72502-6.200662 7.100204-4.449109 6.333819-5.995281 12.587015-3.435586 17.15022 2.559695 4.563213 8.721132 6.526202 16.462073 6.060774 7.740939-.465427 17.124379-3.338914 26.33515-8.476408 6.154993-3.433079 11.44633-7.442361 15.624376-11.614527-4.044372 3.880841-9.068844 7.594561-14.825579 10.805495-9.210773 5.137495-18.563639 8.046254-26.304579 8.51168-7.740941.465427-13.902864-1.529595-16.462557-6.092799-2.559696-4.563215-1.013524-10.816392 3.435584-17.15022 1.477277-2.103075 3.292495-4.215832 5.37178-6.294419z" fill-opacity=".394309"/>
    <path d="m59.474254 68.01234 24.837099 41.90178c14.850937-6.67219 32.326487-22.259917 35.160577-32.60785l-24.19122-42.64011c-2.98601 15.175213-21.157402 26.339255-35.806456 33.34618z" fill="url(#radialGradient2853)"/>
    <path d="m120.02654 75.206335c.29612.527224 1.36529 2.405165 1.58257 2.792022 4.83962 8.616574-5.75832 23.700403-23.680867 33.680173-17.922569 9.97978-36.375404 11.09239-41.215029 2.47582-.261575-.46571-1.511388-2.70455-1.886114-3.37173.124147 1.36639.484302 2.63054 1.140272 3.79842 2.507734 4.46485 8.563078 6.38571 16.178794 5.92962 7.615716-.45612 16.863564-3.2818 25.942868-8.33739 9.079286-5.0556 16.326886-11.38234 20.704136-17.604253 4.37726-6.221913 5.86851-12.361944 3.36076-16.826791-.54669-.973338-1.26529-1.804167-2.12739-2.535891z" fill="url(#linearGradient8872)" opacity=".782787"/>
    <path d="m119.58033 74.691495c.29612.527223 1.36527 2.405171 1.58256 2.792026 4.83962 8.616569-5.75832 23.700399-23.680868 33.680179-17.922569 9.97975-36.375404 11.09239-41.21503 2.4758-.261573-.4657-1.511387-2.70453-1.886114-3.37171.124148 1.36638.484303 2.63053 1.140274 3.79841 2.507732 4.46485 8.563076 6.38571 16.178792 5.92961 7.615717-.4561 16.863564-3.28179 25.942868-8.33738 9.079288-5.0556 16.326888-11.38234 20.704138-17.604252 4.37726-6.221915 5.8685-12.361945 3.36075-16.826793-.54668-.973338-1.26529-1.804166-2.12737-2.53589z" fill="url(#linearGradient8870)" opacity=".782787"/>
    <path d="m15.373706 125.69402c6.847759.05531 12.622401-.70491 14.03227-.67012 9.326466.23004 31.671246-4.0974 22.735097-9.41724-9.762627-5.81187-36.595821-5.65575-47.0436958-.05179-11.4019674 6.11571 3.4296846 10.08382 10.2763288 10.13915z" fill="#b90000" fill-rule="evenodd" stroke="#ae0000" stroke-width=".752087"/>
    <path d="m15.322403 126.05314c6.847759.05531 12.648414-.74299 14.057921-.69577 9.411733.31531 32.48606-4.15474 23.017265-10.00723-9.664578-5.97349-36.852337-5.91226-47.6593344-.00048-11.3511808 6.20946 3.7375042 10.64815 10.5841484 10.70348z" fill="none" opacity=".885246" stroke="url(#linearGradient3300)" stroke-width=".077"/>
    <path d="m84.311353 109.91412c14.850937-6.67219 32.326487-22.259917 35.160577-32.60785-17.4597-30.238836-50.433013 6.272858-35.160577 32.60785z" fill="url(#linearGradient2863)" opacity=".438525"/>
    <path d="m35.982327 55.747756c-5.734737-.137151-7.843869 4.469531-8.212133 8.950807-1.100754 13.394687 1.194693 22.784341.427136 33.501498-.155678 2.173669-4.024379 4.359179-4.479085-.483346-1.055181-11.237456.738275-19.122988-.523294-34.644603-.416695-5.126783-1.990228-10.051762-3.370602-15.912522" fill="#b70000" fill-rule="evenodd" stroke="#000" stroke-width=".1"/>
    <path d="m21.433229 51.631602c1.099911 4.326551 2.140851 8.231161 2.467984 12.256032 1.261569 15.521615-.531794 23.413323.523387 34.650782.060575.645111.189271 1.1606.354173 1.572904.441224-.45097.744983-1.027135.786703-1.609654.767558-10.717157-1.604792-19.975103-.504037-33.36979.28808-3.505559 1.514878-8.090956 4.879362-9.065224-2.846607-1.476588-5.775368-2.898959-8.507572-4.43505z" fill="url(#radialGradient8832)" fill-rule="evenodd"/>
    <path d="m19.565592 44.078709c-.276816 2.324809.025177 4.484733 1.028864 6.328171 4.739522 8.704926 22.321124 6.558621 40.340556-2.668436 4.818399-2.467317 8.798995-5.444049 9.848034-6.319876-7.510285-4.714439-48.4413-8.942499-51.217454 2.660141z" fill="url(#linearGradient3292)"/>
    <path d="m15.322403 126.05314c6.847759.05531 12.648414-.74299 14.057921-.69577 9.411733.31531 32.409105-4.07779 22.94031-9.93028-9.664578-5.97349-36.724079-5.89943-47.5310762.01235-11.3511808 6.20946 3.686201 10.55837 10.5328452 10.6137z" fill="none" opacity=".627049" stroke="url(#linearGradient3300)" stroke-width=".277"/>
    <path d="m15.322403 126.05314c6.847759.05531 12.648414-.74299 14.057921-.69577 9.411733.31531 32.234378-3.80975 22.740787-9.62193-9.634581-5.8985-36.377526-5.82207-47.2227227-.00579-11.4023114 6.11507 3.5773705 10.26816 10.4240147 10.32349z" fill="none" opacity=".245902" stroke="url(#linearGradient3300)" stroke-width=".977"/>
    <path d="m32.370811 111.10281c-7.910261-.29808-16.268955.48981-22.3851147 2.29584-3.1346858 2.85901 8.5579407 5.64224 17.1625417 5.8545 9.783803.24135 20.859428-2.55819 18.915518-6.2892-3.944581-1.04868-8.713171-1.67349-13.692945-1.86114z" fill="url(#linearGradient3308)" opacity=".819672"/>
    <path d="m15.373706 125.69402c6.847759.05531 12.622401-.70491 14.03227-.67012 9.326466.23004 31.671246-4.0974 22.735097-9.41724-9.762627-5.81187-36.595821-5.65575-47.0436958-.05179-11.4019674 6.11571 3.4296846 10.08382 10.2763288 10.13915z" fill="url(#radialGradient3326)" fill-rule="evenodd" opacity=".70082" stroke="url(#radialGradient3334)" stroke-width=".752087"/>
  </g>
</svg>
